<svg width="200" height="200" viewBox="0 0 200 200" fill="none" xmlns="http://www.w3.org/2000/svg">
<path d="M0 0H199.43V199.43H0V0Z" fill="#F5DE19"/>
<path d="M127.066 113.299V160.98C127.066 162.986 126.944 164.84 126.701 166.541C126.519 168.243 126.184 169.702 125.698 170.917C124.908 172.862 123.814 174.655 122.416 176.296C121.079 177.877 119.499 179.244 117.675 180.399C115.852 181.493 113.816 182.344 111.567 182.952C109.379 183.62 107.069 183.954 104.638 183.954C97.284 183.954 91.2972 180.581 86.6781 173.835L98.3476 161.892C98.6515 163.958 99.32 165.599 100.353 166.815C101.387 168.03 102.663 168.638 104.182 168.638C107.525 168.638 109.197 165.994 109.197 160.707V113.299H127.066ZM179.33 130.895C177.385 129.314 175.44 128.16 173.495 127.43C171.55 126.64 169.666 126.245 167.843 126.245C165.533 126.245 163.649 126.792 162.19 127.886C160.731 128.98 160.002 130.408 160.002 132.171C160.002 133.387 160.367 134.389 161.096 135.179C161.825 135.97 162.768 136.669 163.922 137.276C165.138 137.823 166.475 138.31 167.934 138.735C169.453 139.16 170.942 139.616 172.401 140.103C178.236 142.047 182.49 144.661 185.165 147.943C187.9 151.164 189.267 155.388 189.267 160.615C189.267 164.141 188.659 167.331 187.444 170.188C186.289 173.045 184.557 175.506 182.247 177.573C179.998 179.578 177.203 181.128 173.86 182.222C170.578 183.377 166.84 183.954 162.646 183.954C153.955 183.954 145.901 181.371 138.486 176.205L146.145 161.801C148.819 164.171 151.463 165.934 154.076 167.088C156.69 168.243 159.273 168.821 161.826 168.821C164.743 168.821 166.901 168.152 168.298 166.815C169.757 165.478 170.486 163.958 170.486 162.256C170.486 161.223 170.304 160.342 169.939 159.613C169.575 158.822 168.967 158.123 168.116 157.516C167.265 156.847 166.141 156.239 164.743 155.692C163.406 155.145 161.765 154.538 159.82 153.869C157.51 153.14 155.231 152.349 152.982 151.499C150.794 150.587 148.819 149.402 147.056 147.943C145.354 146.484 143.957 144.661 142.863 142.473C141.829 140.224 141.313 137.398 141.313 133.994C141.313 130.591 141.86 127.521 142.954 124.786C144.109 121.991 145.689 119.62 147.694 117.675C149.761 115.67 152.253 114.12 155.17 113.026C158.148 111.932 161.461 111.385 165.108 111.385C168.511 111.385 172.067 111.871 175.774 112.843C179.482 113.755 183.037 115.123 186.441 116.946L179.33 130.895Z" fill="black"/>
<path d="M21.1076 182.888H70.8191L75.5199 166.964C63.1214 153.332 55.2475 145.634 55.2475 127.536C55.2475 123.834 55.4826 123.305 55.8351 119.779H65.8832V106.029H58.4206C58.4206 106.029 67.7635 87.9897 67.7635 85.8155C67.7635 79.8219 62.8864 75.0036 56.9516 75.0036C53.896 75.0036 51.193 76.2375 49.1952 78.2942V65.073H55.7176V58.9031H49.1952V51.8519H43.0253V58.9031H36.5028V65.073H43.0253V78.3529C41.0274 76.2963 38.2657 75.0036 35.2101 75.0036C29.2165 75.0036 24.3981 79.8807 24.3981 85.8155C24.3981 87.9309 33.9761 106.029 33.9761 106.029H26.1022V119.779H36.3853C36.7967 123.305 36.9729 123.834 36.9729 127.536C36.9729 145.634 28.9815 153.508 16.5242 167.14L21.1076 182.888Z" fill="black"/>
</svg>
